HIERARCHY
ROOT Hips
{
  OFFSET -283.628 73.0035 831.539
  CHANNELS 6 Xposition Yposition Zposition Zrotation Xrotation Yrotation
  JOINT Spine
  {
    OFFSET -1.99e-05 8 -2.469e-05
    CHANNELS 6 Xposition Yposition Zposition Zrotation Xrotation Yrotation
    JOINT Spine1
    {
      OFFSET 0 8 0
      CHANNELS 6 Xposition Yposition Zposition Zrotation Xrotation Yrotation
      JOINT Spine2
      {
        OFFSET 1.05306e-05 8 0
        CHANNELS 6 Xposition Yposition Zposition Zrotation Xrotation Yrotation
        JOINT Spine3
        {
          OFFSET 0 8 0
          CHANNELS 6 Xposition Yposition Zposition Zrotation Xrotation Yrotation
          JOINT Neck
          {
            OFFSET 0.000223003 17 0.000305771
            CHANNELS 6 Xposition Yposition Zposition Zrotation Xrotation Yrotation
            JOINT Head
            {
              OFFSET 0 10.8 0
              CHANNELS 6 Xposition Yposition Zposition Zrotation Xrotation Yrotation
              End Site
              {
                OFFSET 0 20.25 0
              }
            }
          }
          JOINT LeftShoulder
          {
            OFFSET 5.00022 16.9999 0.000179488
            CHANNELS 6 Xposition Yposition Zposition Zrotation Xrotation Yrotation
            JOINT LeftShoulder2
            {
              OFFSET 6.45 0 0
              CHANNELS 6 Xposition Yposition Zposition Zrotation Xrotation Yrotation
              JOINT LeftArm
              {
                OFFSET 6.45 -0.00019475 1.53452e-05
                CHANNELS 6 Xposition Yposition Zposition Zrotation Xrotation Yrotation
                JOINT LeftForeArm
                {
                  OFFSET 0 -32.4 -1.99998
                  CHANNELS 6 Xposition Yposition Zposition Zrotation Xrotation Yrotation
                  JOINT LeftHand
                  {
                    OFFSET 2.97833e-05 -25.65 1.99998
                    CHANNELS 6 Xposition Yposition Zposition Zrotation Xrotation Yrotation
                    JOINT LeftHandThumb1
                    {
                      OFFSET -0.499992 -1.50006 2.65003
                      CHANNELS 6 Xposition Yposition Zposition Zrotation Xrotation Yrotation
                      JOINT LeftHandThumb2
                      {
                        OFFSET -1.28383e-05 -3.79998 3.70001
                        CHANNELS 6 Xposition Yposition Zposition Zrotation Xrotation Yrotation
                        JOINT LeftHandThumb3
                        {
                          OFFSET 0 -3 2.69999
                          CHANNELS 6 Xposition Yposition Zposition Zrotation Xrotation Yrotation
                          End Site
                          {
                            OFFSET -2.67692e-05 -2.3 1.79997
                          }
                        }
                      }
                    }
                    JOINT LeftHandIndex
                    {
                      OFFSET 0 -1.9 1.60002
                      CHANNELS 6 Xposition Yposition Zposition Zrotation Xrotation Yrotation
                      JOINT LeftHandIndex1
                      {
                        OFFSET -1.04722e-05 -8.30004 1.9
                        CHANNELS 6 Xposition Yposition Zposition Zrotation Xrotation Yrotation
                        JOINT LeftHandIndex2
                        {
                          OFFSET 6.10037e-05 -4.50002 0
                          CHANNELS 6 Xposition Yposition Zposition Zrotation Xrotation Yrotation
                          JOINT LeftHandIndex3
                          {
                            OFFSET -2.62768e-05 -3.39997 -1.94103e-05
                            CHANNELS 6 Xposition Yposition Zposition Zrotation Xrotation Yrotation
                            End Site
                            {
                              OFFSET 0 -2.6 0
                            }
                          }
                        }
                      }
                    }
                    JOINT LeftHandMiddle
                    {
                      OFFSET -0.249996 -2.20004 0.400026
                      CHANNELS 6 Xposition Yposition Zposition Zrotation Xrotation Yrotation
                      JOINT LeftHandMiddle1
                      {
                        OFFSET 0 -8.29999 0.999991
                        CHANNELS 6 Xposition Yposition Zposition Zrotation Xrotation Yrotation
                        JOINT LeftHandMiddle2
                        {
                          OFFSET 0 -4.64999 0
                          CHANNELS 6 Xposition Yposition Zposition Zrotation Xrotation Yrotation
                          JOINT LeftHandMiddle3
                          {
                            OFFSET 0 -3.30001 0
                            CHANNELS 6 Xposition Yposition Zposition Zrotation Xrotation Yrotation
                            End Site
                            {
                              OFFSET -4.88408e-05 -2.69999 0
                            }
                          }
                        }
                      }
                    }
                    JOINT LeftHandRing
                    {
                      OFFSET -0.499993 -2.15005 -0.799962
                      CHANNELS 6 Xposition Yposition Zposition Zrotation Xrotation Yrotation
                      JOINT LeftHandRing1
                      {
                        OFFSET -1.31948e-05 -7.75001 -0.200011
                        CHANNELS 6 Xposition Yposition Zposition Zrotation Xrotation Yrotation
                        JOINT LeftHandRing2
                        {
                          OFFSET 0 -3.79999 0
                          CHANNELS 6 Xposition Yposition Zposition Zrotation Xrotation Yrotation
                          JOINT LeftHandRing3
                          {
                            OFFSET 0 -3.4 0
                            CHANNELS 6 Xposition Yposition Zposition Zrotation Xrotation Yrotation
                            End Site
                            {
                              OFFSET 1.38154e-05 -2.6 -1.38879e-05
                            }
                          }
                        }
                      }
                    }
                    JOINT LeftHandPinky
                    {
                      OFFSET -0.749994 -1.75001 -1.84999
                      CHANNELS 6 Xposition Yposition Zposition Zrotation Xrotation Yrotation
                      JOINT LeftHandPinky1
                      {
                        OFFSET -1.17845e-05 -7.15004 -1
                        CHANNELS 6 Xposition Yposition Zposition Zrotation Xrotation Yrotation
                        JOINT LeftHandPinky2
                        {
                          OFFSET 0 -2.99998 -2.79084e-05
                          CHANNELS 6 Xposition Yposition Zposition Zrotation Xrotation Yrotation
                          JOINT LeftHandPinky3
                          {
                            OFFSET 2.77592e-05 -2.35001 1.80082e-05
                            CHANNELS 6 Xposition Yposition Zposition Zrotation Xrotation Yrotation
                            End Site
                            {
                              OFFSET 0 -2.10001 -2.55586e-05
                            }
                          }
                        }
                      }
                    }
                  }
                }
              }
            }
          }
          JOINT RightShoulder
          {
            OFFSET -4.99977 17.0001 0.000429946
            CHANNELS 6 Xposition Yposition Zposition Zrotation Xrotation Yrotation
            JOINT RightShoulder2
            {
              OFFSET -6.45 0 0
              CHANNELS 6 Xposition Yposition Zposition Zrotation Xrotation Yrotation
              JOINT RightArm
              {
                OFFSET -6.45001 0.000240246 -0.000106388
                CHANNELS 6 Xposition Yposition Zposition Zrotation Xrotation Yrotation
                JOINT RightForeArm
                {
                  OFFSET 0 -32.4 -1.99998
                  CHANNELS 6 Xposition Yposition Zposition Zrotation Xrotation Yrotation
                  JOINT RightHand
                  {
                    OFFSET 0 -25.65 1.99998
                    CHANNELS 6 Xposition Yposition Zposition Zrotation Xrotation Yrotation
                    JOINT RightHandThumb1
                    {
                      OFFSET 0.499985 -1.5 2.65
                      CHANNELS 6 Xposition Yposition Zposition Zrotation Xrotation Yrotation
                      JOINT RightHandThumb2
                      {
                        OFFSET 2.29336e-05 -3.80001 3.69999
                        CHANNELS 6 Xposition Yposition Zposition Zrotation Xrotation Yrotation
                        JOINT RightHandThumb3
                        {
                          OFFSET 0 -3 2.7
                          CHANNELS 6 Xposition Yposition Zposition Zrotation Xrotation Yrotation
                          End Site
                          {
                            OFFSET -1.21801e-05 -2.29999 1.8
                          }
                        }
                      }
                    }
                    JOINT RightHandIndex
                    {
                      OFFSET 1.11565e-05 -1.90002 1.6
                      CHANNELS 6 Xposition Yposition Zposition Zrotation Xrotation Yrotation
                      JOINT RightHandIndex1
                      {
                        OFFSET 0 -8.29999 1.9
                        CHANNELS 6 Xposition Yposition Zposition Zrotation Xrotation Yrotation
                        JOINT RightHandIndex2
                        {
                          OFFSET 0 -4.50001 0
                          CHANNELS 6 Xposition Yposition Zposition Zrotation Xrotation Yrotation
                          JOINT RightHandIndex3
                          {
                            OFFSET 5.84181e-05 -3.39999 0
                            CHANNELS 6 Xposition Yposition Zposition Zrotation Xrotation Yrotation
                            End Site
                            {
                              OFFSET -1.10425e-05 -2.59998 0
                            }
                          }
                        }
                      }
                    }
                    JOINT RightHandMiddle
                    {
                      OFFSET 0.250008 -2.20002 0.400005
                      CHANNELS 6 Xposition Yposition Zposition Zrotation Xrotation Yrotation
                      JOINT RightHandMiddle1
                      {
                        OFFSET 1.37714e-05 -8.30001 0.999991
                        CHANNELS 6 Xposition Yposition Zposition Zrotation Xrotation Yrotation
                        JOINT RightHandMiddle2
                        {
                          OFFSET -6.59879e-05 -4.64996 0
                          CHANNELS 6 Xposition Yposition Zposition Zrotation Xrotation Yrotation
                          JOINT RightHandMiddle3
                          {
                            OFFSET 3.49697e-05 -3.30003 0
                            CHANNELS 6 Xposition Yposition Zposition Zrotation Xrotation Yrotation
                            End Site
                            {
                              OFFSET 0 -2.69997 1.05712e-05
                            }
                          }
                        }
                      }
                    }
                    JOINT RightHandRing
                    {
                      OFFSET 0.500001 -2.15001 -0.799999
                      CHANNELS 6 Xposition Yposition Zposition Zrotation Xrotation Yrotation
                      JOINT RightHandRing1
                      {
                        OFFSET 1.43519e-05 -7.75001 -0.200002
                        CHANNELS 6 Xposition Yposition Zposition Zrotation Xrotation Yrotation
                        JOINT RightHandRing2
                        {
                          OFFSET 0 -3.79999 0
                          CHANNELS 6 Xposition Yposition Zposition Zrotation Xrotation Yrotation
                          JOINT RightHandRing3
                          {
                            OFFSET 0 -3.40003 0
                            CHANNELS 6 Xposition Yposition Zposition Zrotation Xrotation Yrotation
                            End Site
                            {
                              OFFSET 0 -2.59999 0
                            }
                          }
                        }
                      }
                    }
                    JOINT RightHandPinky
                    {
                      OFFSET 0.750021 -1.75003 -1.85
                      CHANNELS 6 Xposition Yposition Zposition Zrotation Xrotation Yrotation
                      JOINT RightHandPinky1
                      {
                        OFFSET 0 -7.14999 -0.999997
                        CHANNELS 6 Xposition Yposition Zposition Zrotation Xrotation Yrotation
                        JOINT RightHandPinky2
                        {
                          OFFSET 0 -3 0
                          CHANNELS 6 Xposition Yposition Zposition Zrotation Xrotation Yrotation
                          JOINT RightHandPinky3
                          {
                            OFFSET 0 -2.34999 0
                            CHANNELS 6 Xposition Yposition Zposition Zrotation Xrotation Yrotation
                            End Site
                            {
                              OFFSET 0 -2.09994 -3.93007e-05
                            }
                          }
                        }
                      }
                    }
                  }
                }
              }
            }
          }
        }
      }
    }
  }
  JOINT LeftUpLeg
  {
    OFFSET 7.99999 0 0
    CHANNELS 6 Xposition Yposition Zposition Zrotation Xrotation Yrotation
    JOINT LeftLeg
    {
      OFFSET 1.89445e-05 -45 -1.00003
      CHANNELS 6 Xposition Yposition Zposition Zrotation Xrotation Yrotation
      JOINT LeftFoot
      {
        OFFSET -1.56508e-05 -41 -2
        CHANNELS 6 Xposition Yposition Zposition Zrotation Xrotation Yrotation
        JOINT LeftToeBase
        {
          OFFSET 0 -7.50001 12.5
          CHANNELS 6 Xposition Yposition Zposition Zrotation Xrotation Yrotation
          JOINT LeftFootToe
          {
            OFFSET 0 0 4
            CHANNELS 6 Xposition Yposition Zposition Zrotation Xrotation Yrotation
            End Site
            {
              OFFSET 0 0 0
            }
          }
        }
      }
    }
  }
  JOINT RightUpLeg
  {
    OFFSET -7.99999 0 0
    CHANNELS 6 Xposition Yposition Zposition Zrotation Xrotation Yrotation
    JOINT RightLeg
    {
      OFFSET -1.1216e-05 -45 -1.00001
      CHANNELS 6 Xposition Yposition Zposition Zrotation Xrotation Yrotation
      JOINT RightFoot
      {
        OFFSET -2.1011e-05 -41 -1.99997
        CHANNELS 6 Xposition Yposition Zposition Zrotation Xrotation Yrotation
        JOINT RightToeBase
        {
          OFFSET 1.85284e-05 -7.5 12.5
          CHANNELS 6 Xposition Yposition Zposition Zrotation Xrotation Yrotation
          JOINT RightFootToe
          {
            OFFSET 0 0 4
            CHANNELS 6 Xposition Yposition Zposition Zrotation Xrotation Yrotation
            End Site
            {
              OFFSET 0 0 0
            }
          }
        }
      }
    }
  }
}
MOTION
Frames:	3
Frame Time:	0.0111111
-287.694 73.307 831.509 -2.47871 18.1359 172.663 -5.68434e-14 8 1.13687e-13 4.70986 11.3619 -11.893 0 8 1.13687e-13 2.59203 6.12995 1.88848 -2.84217e-14 8 0 1.32065 3.05718 0.984031 5.68434e-14 8 -1.13687e-13 1.318 3.05156 0.982859 -5.68434e-14 17 -1.13687e-13 1.55227 2.19887 -4.87521 0 10.8 0 3.73886 4.85007 -11.4976 5 17 -1.13687e-13 -2.22142 -3.65304 10.1344 6.45 -7.10543e-15 -1.13687e-13 -0.401733 -0.761348 0.86937 6.45 -2.84217e-14 -1.13687e-13 61.6229 -0.851818 -13.6934 -2.84217e-14 -32.4 -2 -71.0714 -67.5022 -75.7516 0 -25.65 2 14.496 -5.48306 -26.1108 -0.5 -1.5 2.65 -6.72126 -12.0763 -17.3228 -5.68434e-14 -3.8 3.7 -0.793787 28.0658 -0.0366495 0 -3 2.7 -0.2223 35.1352 0.0965047 0 -1.9 1.6 -2.78932e-06 -1.08876e-06 3.78155e-06 0 -8.3 1.9 -14.7822 18.9235 2.99504 -5.68434e-14 -4.5 0 -0.00314505 0.331103 0.504601 -5.68434e-14 -3.4 5.68434e-14 0.000876949 0.285077 -0.106897 -0.25 -2.2 0.4 -2.78932e-06 -1.08876e-06 3.78155e-06 -2.84217e-14 -8.3 1 -12.7001 12.5478 2.30133 0 -4.65 0 -0.00175307 0.133962 0.0200929 0 -3.3 0 7.04205e-05 0.140568 0.0202656 -0.5 -2.15 -0.8 -2.78932e-06 -1.08876e-06 3.78155e-06 0 -7.75 -0.2 -15.9528 17.4627 4.13883 5.68434e-14 -3.8 0 -31.9944 0.147056 0.00529469 0 -3.4 -5.68434e-14 -23.2618 0.0806596 0.0391118 -0.75 -1.75 -1.85 -2.78932e-06 -1.08876e-06 3.78155e-06 0 -7.15 -1 -21.5724 32.4099 9.2146 0 -3 0 -0.0298439 -0.0818634 -0.0956532 -5.68434e-14 -2.35 1.13687e-13 0.000212967 -0.0813995 0.0466347 -5 17 0 4.27235 -4.72569 9.75158 -6.45 -7.10543e-15 0 -2.76663 1.04942 -4.29744 -6.45 1.42109e-14 -1.13687e-13 -0.214464 -15.6152 -10.972 5.68434e-14 -32.4 -2 0.578416 -46.1595 -40.3877 0 -25.65 2 -24.0341 -17.7459 -35.5168 0.5 -1.5 2.65 -3.97041 -19.7423 4.24168 0 -3.8 3.7 0.140869 0.750867 -0.00714391 -1.13687e-13 -3 2.7 -0.155845 -0.550685 0.45895 5.68434e-14 -1.9 1.6 6.36111e-15 0 6.36111e-15 0 -8.3 1.9 0.109984 2.82773 -0.222221 0 -4.5 0 5.28459 0.0228762 -0.219471 0 -3.4 -2.84217e-14 2.15281 -0.00719254 -0.215354 0.25 -2.2 0.4 6.36111e-15 0 6.36111e-15 5.68434e-14 -8.3 1 4.4125 6.51015 -0.88673 0 -4.65 2.84217e-14 4.29829 0.0636858 -0.171011 5.68434e-14 -3.3 5.68434e-14 0.000235224 0.0670988 -0.178113 0.5 -2.15 -0.8 6.36111e-15 0 6.36111e-15 0 -7.75 -0.2 16.3064 11.3511 -3.77642 -5.68434e-14 -3.8 8.52651e-14 0.0129801 0.54595 0.121989 0 -3.4 0 -0.00132219 0.544984 0.142066 0.75 -1.75 -1.85 6.36111e-15 0 6.36111e-15 -5.68434e-14 -7.15 -1 20.7053 31.6247 -8.58672 5.68434e-14 -3 -2.84217e-14 0.0034731 0.107714 0.0234723 0 -2.35 0 -3.4544e-05 0.102307 0.0200559 8 0 0 10.6456 -38.7081 19.4217 5.68434e-14 -45 -1 3.78013 49.2682 -13.5693 0 -41 -2 -2.95456 4.1638 12.0522 0 -7.5 12.5 7.19216e-08 1.38483e-06 4.29848e-08 0 0 4 1.8174 -15.534 42.0931 -8 0 0 18.4922 -37.7595 22.3605 5.68434e-14 -45 -1 6.64763 79.5089 -8.26295 0 -41 -2 -5.74589 -0.326508 5.12507 0 -7.5 12.5 -4.02661e-09 -19.7086 2.12371e-06 0 0 4 6.7276 19.6898 1.13281 
-287.686 73.3009 831.515 -2.46733 18.1622 172.637 -2.84217e-14 8 0 4.67928 11.342 -11.8933 -2.84217e-14 8 0 2.57179 6.11268 1.89068 2.84217e-14 8 0 1.31046 3.04858 0.985144 0 8 0 1.30789 3.04312 0.983389 8.52651e-14 17 0 1.6081 2.24564 -4.88041 5.68434e-14 10.8 -1.13687e-13 3.76738 4.91473 -11.5102 5 17 0 -2.26524 -3.69343 9.96038 6.45 0 0 -0.37394 -0.754316 0.944956 6.45 -2.84217e-14 0 61.7877 -0.548231 -13.709 0 -32.4 -2 -71.5204 -67.5213 -76.5567 1.13687e-13 -25.65 2 14.9743 -6.14303 -26.5481 -0.5 -1.5 2.65 -7.40449 -11.4716 -17.8863 0 -3.8 3.7 -0.877612 27.5627 -0.0445827 0 -3 2.7 -0.239359 33.8922 0.105206 -2.84217e-14 -1.9 1.6 -2.78932e-06 -1.08876e-06 3.78155e-06 -2.84217e-14 -8.3 1.9 -17.8927 19.3009 3.6252 0 -4.5 -5.68434e-14 -0.00315346 0.332077 0.504558 0 -3.4 0 0.000885548 0.285853 -0.108363 -0.25 -2.2 0.4 -2.78932e-06 -1.08876e-06 3.78155e-06 0 -8.3 1 -14.2373 12.4926 2.47316 -5.68434e-14 -4.65 5.68434e-14 -0.00175287 0.133802 0.0201903 0 -3.3 0 6.92699e-05 0.140541 0.0203042 -0.5 -2.15 -0.8 -2.78932e-06 -1.08876e-06 3.78155e-06 0 -7.75 -0.2 -16.2532 17.2686 4.12642 5.68434e-14 -3.8 0 -34.6667 0.119003 0.00354192 -1.13687e-13 -3.4 -5.68434e-14 -24.8833 0.065557 0.0301394 -0.75 -1.75 -1.85 -2.78932e-06 -1.08876e-06 3.78155e-06 0 -7.15 -1 -21.3758 32.3368 9.11673 0 -3 0 -0.0298417 -0.0811703 -0.0952745 -5.68434e-14 -2.35 0 0.000213314 -0.080716 0.047977 -5 17 0 4.38627 -4.73137 9.7591 -6.45 -7.10543e-15 1.13687e-13 -2.76201 1.04533 -4.27978 -6.45 7.10543e-15 -1.13687e-13 -0.295994 -15.539 -11.0976 5.68434e-14 -32.4 -2 0.689372 -46.1044 -40.219 5.68434e-14 -25.65 2 -24.068 -17.7418 -35.5063 0.5 -1.5 2.65 -4.02162 -19.7338 4.16841 0 -3.8 3.7 0.140743 0.690804 -0.00717439 -1.13687e-13 -3 2.7 -0.15705 -0.549835 0.459597 5.68434e-14 -1.9 1.6 -3.18055e-15 0 -0 0 -8.3 1.9 0.117574 2.92513 -0.22208 0 -4.5 2.84217e-14 5.40693 0.0229389 -0.220413 0 -3.4 5.68434e-14 2.26802 -0.00720169 -0.216269 0.25 -2.2 0.4 -3.18055e-15 0 -0 0 -8.3 1 4.43202 6.57301 -0.886629 -5.68434e-14 -4.65 0 4.29856 0.0646887 -0.171693 0 -3.3 5.68434e-14 0.00023901 0.0680919 -0.178702 0.5 -2.15 -0.8 -3.18055e-15 0 -0 0 -7.75 -0.2 16.3276 11.3686 -3.76749 -5.68434e-14 -3.8 0 0.0129742 0.546078 0.122581 0 -3.4 0 -0.00132804 0.545149 0.142638 0.75 -1.75 -1.85 -3.18055e-15 0 -0 -5.68434e-14 -7.15 -1 20.7714 31.5318 -8.56853 -5.68434e-14 -3 0 0.00347451 0.107114 0.0228514 5.68434e-14 -2.35 -2.84217e-14 -3.32425e-05 0.101715 0.0194395 8 0 0 10.6358 -38.6983 19.3684 0 -45 -1 3.78138 49.2898 -13.5787 0 -41 -2 -2.98266 4.11345 12.0673 0 -7.5 12.5 7.19216e-08 1.38483e-06 4.29848e-08 -5.68434e-14 0 4 1.85288 -15.4931 42.13 -8 0 -1.13687e-13 18.5136 -37.7303 22.3779 0 -45 -1 6.64874 79.5093 -8.26166 -5.68434e-14 -41 -2 -5.74889 -0.326354 5.12967 0 -7.5 12.5 -1.73158e-09 -19.7669 2.12449e-06 0 -2.22045e-16 4 6.72997 19.7419 1.13052 
-287.678 73.294 831.523 -2.45612 18.1872 172.611 0 8 0 4.64456 11.3232 -11.8912 -2.84217e-14 8 0 2.5464 6.09288 1.89448 0 8 -1.13687e-13 1.29758 3.03872 0.986445 5.68434e-14 8 0 1.29517 3.03329 0.98397 -2.84217e-14 17 -1.13687e-13 1.67751 2.29502 -4.88772 5.68434e-14 10.8 0 3.80058 4.97449 -11.5273 5 17 0 -2.29932 -3.73049 9.78007 6.45 -7.10543e-15 1.13687e-13 -0.347044 -0.748945 1.02503 6.45 -1.42109e-14 -1.13687e-13 61.9339 -0.236109 -13.734 -5.68434e-14 -32.4 -2 -71.8855 -67.5205 -77.2702 0 -25.65 2 15.5014 -6.86862 -26.9316 -0.5 -1.5 2.65 -8.09109 -10.9047 -18.4927 -5.68434e-14 -3.8 3.7 -0.954915 27.0446 -0.0524392 5.68434e-14 -3 2.7 -0.249172 32.4841 0.112889 0 -1.9 1.6 -2.78932e-06 -1.08876e-06 3.78155e-06 -5.68434e-14 -8.3 1.9 -20.8803 19.6218 4.23909 5.68434e-14 -4.5 0 -0.00316179 0.333046 0.504507 0 -3.4 0 0.000894151 0.286614 -0.109831 -0.25 -2.2 0.4 -2.78932e-06 -1.08876e-06 3.78155e-06 -5.68434e-14 -8.3 1 -15.704 12.4499 2.64131 0 -4.65 5.68434e-14 -0.00175267 0.133638 0.0202865 0 -3.3 0 6.81172e-05 0.140515 0.0203421 -0.5 -2.15 -0.8 -2.78932e-06 -1.08876e-06 3.78155e-06 0 -7.75 -0.2 -16.5571 17.0957 4.12294 5.68434e-14 -3.8 0 -36.73 0.0848085 0.00200916 0 -3.4 0 -26.1273 0.0470412 0.0201836 -0.75 -1.75 -1.85 -2.78932e-06 -1.08876e-06 3.78155e-06 0 -7.15 -1 -21.2217 32.281 9.04086 5.68434e-14 -3 -1.13687e-13 -0.0298396 -0.0804742 -0.0948945 -5.68434e-14 -2.35 0 0.000213614 -0.0800311 0.0493147 -5 17 0 4.51012 -4.72809 9.7551 -6.45 -7.10543e-15 0 -2.75797 1.04027 -4.26297 -6.45 2.13163e-14 1.13687e-13 -0.371396 -15.4677 -11.2171 1.13687e-13 -32.4 -2 0.805699 -46.0456 -40.0458 -2.84217e-14 -25.65 2 -24.0989 -17.74 -35.4999 0.5 -1.5 2.65 -4.08154 -19.7218 4.09289 0 -3.8 3.7 0.140621 0.634642 -0.00720252 0 -3 2.7 -0.158251 -0.548989 0.460272 1.13687e-13 -1.9 1.6 -9.54166e-15 0 -3.18055e-15 5.68434e-14 -8.3 1.9 0.12504 3.01826 -0.221936 0 -4.5 2.84217e-14 5.52723 0.0230016 -0.221352 0 -3.4 2.84217e-14 2.38099 -0.00721067 -0.217182 0.25 -2.2 0.4 -9.54166e-15 0 -3.18055e-15 -5.68434e-14 -8.3 1 4.45402 6.6361 -0.886502 0 -4.65 -5.68434e-14 4.29884 0.0656922 -0.172372 5.68434e-14 -3.3 5.68434e-14 0.000242816 0.0690854 -0.179289 0.5 -2.15 -0.8 -9.54166e-15 0 -3.18055e-15 -5.68434e-14 -7.75 -0.2 16.356 11.3863 -3.75954 -5.68434e-14 -3.8 -2.84217e-14 0.0129683 0.546203 0.123171 5.68434e-14 -3.4 0 -0.00133388 0.545308 0.143209 0.75 -1.75 -1.85 -9.54166e-15 0 -3.18055e-15 0 -7.15 -1 20.8527 31.4382 -8.55513 0 -3 2.84217e-14 0.00347591 0.106513 0.0222298 -5.68434e-14 -2.35 -2.84217e-14 -3.19512e-05 0.101122 0.0188218 8 0 0 10.6227 -38.6928 19.3063 5.68434e-14 -45 -1 3.78262 49.3151 -13.5892 -2.84217e-14 -41 -2 -3.01512 4.05028 12.0841 -5.68434e-14 -7.5 12.5 7.19216e-08 1.38483e-06 4.29848e-08 0 0 4 1.89552 -15.4416 42.1741 -8 5.68434e-14 0 18.5373 -37.7038 22.3965 5.68434e-14 -45 -1 6.64333 79.51 -8.2526 -5.68434e-14 -41 -2 -5.75207 -0.326204 5.13539 5.68434e-14 -7.5 12.5 1.9123e-10 -19.8157 2.12514e-06 -5.68434e-14 0 4 6.72966 19.791 1.1301 
